<svg viewBox="0 0 64 64" xml:space="preserve" xmlns="http://www.w3.org/2000/svg" enable-background="new 0 0 64 64"><path d="M25 2a6.996 6.996 0 0 0-6.34 4.047C18.441 6.026 18.224 6 18 6a7 7 0 0 0-7 7v.422a4.985 4.985 0 0 0-2.932 3.907L8 17.29A7.003 7.003 0 0 0 3 24c0 1.347.387 2.601 1.047 3.669a7.972 7.972 0 0 0 .572 11.243A8.001 8.001 0 0 0 11 49.938v-.002V50h.378c.714 2.021 2.457 3.553 4.621 3.917l.015-.184c-.003.09-.014.177-.014.267a8 8 0 0 0 16 0V9a7 7 0 0 0-7-7zM11 37.955V38c-.01.027-.008.005 0-.045z" fill="#ed6d0c" class="fill-ffcb57"></path><path d="M39 28h-4v-2h4c.551 0 1-.449 1-1v-7h2v7c0 1.654-1.346 3-3 3zM41 16c-1.654 0-3-1.346-3-3s1.346-3 3-3 3 1.346 3 3-1.346 3-3 3zm0-4c-.551 0-1 .449-1 1s.449 1 1 1 1-.449 1-1-.449-1-1-1zM42 46h-2v-7c0-.551-.449-1-1-1h-4v-2h4c1.654 0 3 1.346 3 3v7zM41 54c-1.654 0-3-1.346-3-3s1.346-3 3-3 3 1.346 3 3-1.346 3-3 3zm0-4c-.551 0-1 .449-1 1s.449 1 1 1 1-.449 1-1-.449-1-1-1zM45 33H35v-2h10c1.654 0 3-1.346 3-3v-3h2v3c0 2.757-2.243 5-5 5zM49 23c-1.654 0-3-1.346-3-3s1.346-3 3-3 3 1.346 3 3-1.346 3-3 3zm0-4c-.551 0-1 .449-1 1s.449 1 1 1 1-.449 1-1-.449-1-1-1zM48 36h2v10h-2zM53 22h2v16h-2zM53 40h2v2h-2z" fill="#e56565" class="fill-e56565"></path><path d="M36.782 1.367a5.02 5.02 0 0 0-4.034 1.148 4.983 4.983 0 0 0-1.309 1.756C29.98 2.292 27.641 1 25 1c-2.956 0-5.536 1.615-6.921 4.006C18.053 5.005 18.026 5 18 5c-4.346 0-7.886 3.485-7.99 7.806a6.015 6.015 0 0 0-2.822 3.731C4.114 17.701 2 20.678 2 24c0 1.235.29 2.452.842 3.559A8.962 8.962 0 0 0 1 33c0 2.306.891 4.511 2.461 6.175A8.954 8.954 0 0 0 3 42a9.004 9.004 0 0 0 7.621 8.886 6.953 6.953 0 0 0 4.415 3.829C15.403 59.344 19.279 63 24 63c2.984 0 5.626-1.466 7.264-3.709a5.014 5.014 0 0 0 5.517 3.342C51.974 60.281 63 47.397 63 32S51.974 3.719 36.782 1.367zM24 61c-3.86 0-7-3.14-7-7s3.14-7 7-7v-2c-4.492 0-8.216 3.313-8.883 7.621A4.972 4.972 0 0 1 12 48c0-2.757 2.243-5 5-5v-2c-3.86 0-7 3.14-7 7 0 .242.015.48.039.716A7.007 7.007 0 0 1 5 42c0-3.86 3.14-7 7-7v-2c-3.196 0-6.001 1.68-7.598 4.197A7 7 0 0 1 3 33c0-1.718.636-3.374 1.792-4.664l.499-.557-.393-.636A5.979 5.979 0 0 1 4 24c0-2.179 1.215-4.158 3.058-5.208C7.448 21.727 9.961 24 13 24v-2c-2.206 0-4-1.794-4-4s1.794-4 4-4 4 1.794 4 4h2c0-3.309-2.691-6-6-6a6.1 6.1 0 0 0-.922.078 6.005 6.005 0 0 1 5.172-5.026A7.974 7.974 0 0 0 17 9c0 4.411 3.589 8 8 8v-2c-3.309 0-6-2.691-6-6s2.691-6 6-6 6 2.691 6 6v45c0 3.86-3.14 7-7 7zm12.475-.343A3.009 3.009 0 0 1 33 57.688V6.312c0-.877.382-1.708 1.049-2.279a3.016 3.016 0 0 1 2.427-.69C50.457 5.508 61 17.828 61 32S50.457 58.492 36.475 60.657z" fill="#3f3a34" class="fill-3f3a34"></path><path d="M25 8h2v2h-2zM20 31h2v2h-2zM26 53h2v2h-2zM9 38h2v2H9zM27 24h2v2h-2zM8 26h2v2H8z" fill="#3f3a34" class="fill-3f3a34"></path></svg>